<?xml version="1.0" encoding="UTF-8" standalone="no"?>
<!-- Created with Inkscape (http://www.inkscape.org/) -->

<svg
   version="1.1"
   id="svg1"
   width="2149.8267"
   height="666.40002"
   viewBox="0 0 2149.8267 666.40002"
   sodipodi:docname="react-logo.eps"
   xmlns:inkscape="http://www.inkscape.org/namespaces/inkscape"
   xmlns:sodipodi="http://sodipodi.sourceforge.net/DTD/sodipodi-0.dtd"
   xmlns="http://www.w3.org/2000/svg"
   xmlns:svg="http://www.w3.org/2000/svg">
  <defs
     id="defs1" />
  <sodipodi:namedview
     id="namedview1"
     pagecolor="#ffffff"
     bordercolor="#000000"
     borderopacity="0.25"
     inkscape:showpageshadow="2"
     inkscape:pageopacity="0.0"
     inkscape:pagecheckerboard="0"
     inkscape:deskcolor="#d1d1d1">
    <inkscape:page
       x="0"
       y="0"
       inkscape:label="1"
       id="page1"
       width="2149.8267"
       height="666.40002"
       margin="0"
       bleed="0" />
  </sodipodi:namedview>
  <g
     id="g1"
     inkscape:groupmode="layer"
     inkscape:label="1">
    <g
       id="group-R5">
      <path
         id="path2"
         d="m 2809.01,3005.4 c 277.06,0 501.67,-224.61 501.67,-501.67 0,-277.06 -224.61,-501.67 -501.67,-501.67 -277.07,0 -501.67,224.61 -501.67,501.67 0,277.06 224.6,501.67 501.67,501.67"
         style="fill:#61ccec;fill-opacity:1;fill-rule:nonzero;stroke:none"
         transform="matrix(0.13333333,0,0,-0.13333333,0,666.4)" />
      <path
         id="path3"
         d="m 2809.01,3523.73 c 673.56,0 1299.28,-96.65 1771.07,-259.07 568.45,-195.69 917.94,-492.33 917.94,-760.93 0,-279.91 -370.41,-595.03 -980.83,-797.28 -461.51,-152.91 -1068.79,-232.72 -1708.18,-232.72 -655.54,0 -1276.3,74.92 -1742.9,234.4 C 475.648,1909.96 120,2229.17 120,2503.73 c 0,266.42 333.699,560.76 894.15,756.16 473.55,165.09 1114.72,263.84 1794.86,263.84 z"
         style="fill:none;stroke:#61ccec;stroke-width:240;stroke-linecap:butt;stroke-linejoin:miter;stroke-miterlimit:4;stroke-dasharray:none;stroke-opacity:1"
         transform="matrix(0.13333333,0,0,-0.13333333,0,666.4)" />
      <path
         id="path4"
         d="m 1921.08,3010.79 c 336.49,583.48 732.81,1077.24 1109.2,1404.8 453.5,394.66 885.07,549.23 1117.75,415.05 C 4390.51,4690.81 4478.45,4212.5 4348.7,3582.68 4250.6,3106.5 4016.36,2540.56 3696.94,1986.67 3369.45,1418.79 2994.44,918.48 2623.17,593.941 2153.36,183.27 1699.17,34.6602 1461.32,171.809 1230.53,304.922 1142.26,741.02 1252.98,1324.15 c 93.55,492.69 328.32,1097.45 668.1,1686.64 z"
         style="fill:none;stroke:#61ccec;stroke-width:240;stroke-linecap:butt;stroke-linejoin:miter;stroke-miterlimit:4;stroke-dasharray:none;stroke-opacity:1"
         transform="matrix(0.13333333,0,0,-0.13333333,0,666.4)" />
      <path
         id="path5"
         d="m 1921.93,1985.18 c -337.46,582.93 -567.31,1172.88 -663.12,1662.56 -115.44,589.99 -33.82,1041.09 198.64,1175.66 242.24,140.24 700.55,-22.44 1181.4,-449.4 363.56,-322.8 736.88,-808.37 1057.23,-1361.73 328.44,-567.33 574.61,-1142.09 670.37,-1625.82 C 4487.61,774.309 4389.53,306.609 4151.91,169.051 3921.34,35.5586 3499.42,176.891 3049.52,564.039 2669.39,891.152 2262.7,1396.57 1921.93,1985.18 Z"
         style="fill:none;stroke:#61ccec;stroke-width:240;stroke-linecap:butt;stroke-linejoin:miter;stroke-miterlimit:4;stroke-dasharray:none;stroke-opacity:1"
         transform="matrix(0.13333333,0,0,-0.13333333,0,666.4)" />
      <path
         id="path6"
         d="m 15781.7,1504.4 c 167.2,0 269.8,49.41 342,117.81 l -83.6,212.8 c -38,-41.8 -114,-76 -193.8,-76 -125.4,0 -186.2,98.79 -186.2,235.6 v 1140 h 372.4 v 250.8 h -372.4 v 501.6 h -285 v -501.6 h -304 v -250.8 h 304 v -1200.8 c 0,-273.61 136.8,-429.41 406.6,-429.41 z m -1535.2,0 c 334.4,0 532,136.81 672.6,319.2 l -190,174.81 c -121.6,-163.4 -277.4,-239.4 -467.4,-239.4 -391.4,0 -634.6,304 -634.6,710.6 0,406.6 243.2,706.8 634.6,706.8 190,0 345.8,-72.2 467.4,-239.4 l 190,174.8 c -140.6,182.4 -338.2,319.2 -672.6,319.2 -547.2,0 -915.8,-418 -915.8,-961.4 0,-547.2 368.6,-965.21 915.8,-965.21 z m -2169.8,205.21 c -266,0 -452.2,167.19 -452.2,398.99 0,235.61 186.2,402.81 452.2,402.81 201.4,0 395.2,-76 505.4,-228 v -345.8 c -110.2,-152 -304,-228 -505.4,-228 z m 790.4,-159.6 v 1261.6 c 0,444.6 -323,619.4 -710.6,619.4 -300.2,0 -535.8,-98.81 -733.4,-304 l 133,-197.6 c 163.4,174.8 342,254.6 562.4,254.6 266,0 463.6,-140.6 463.6,-387.6 v -330.6 c -148.2,171 -357.2,250.8 -608,250.8 -311.6,0 -642.2,-193.8 -642.2,-604.2 0,-399 330.6,-608.01 642.2,-608.01 247,0 456,87.4 608,254.61 v -209 z m -2173.6,1033.6 H 9488.92 c 15.2,281.2 209,611.8 600.38,611.8 418,0 600.4,-338.2 604.2,-611.8 z m -570,-1079.21 c 300.2,0 547.2,98.81 729.6,281.21 l -136.8,186.19 c -144.4,-148.2 -357.2,-231.79 -566.2,-231.79 -395.18,0 -638.38,288.8 -661.18,634.6 h 1485.78 v 72.19 c 0,551.01 -326.8,984.21 -881.6,984.21 -524.38,0 -904.38,-429.4 -904.38,-961.4 0,-573.8 391.4,-965.21 934.78,-965.21 z M 8090.52,2834.41 h -665 v 969 h 665 c 300.2,0 505.4,-197.6 505.4,-482.6 0,-285 -205.2,-486.4 -505.4,-486.4 z m 858.8,-1284.4 -684,1033.6 c 345.8,30.4 657.4,281.2 657.4,737.2 0,467.4 -330.6,763.8 -794.19,763.8 H 7110.12 v -2534.6 h 315.4 v 1007 h 505.4 l 646,-1007 h 372.4"
         style="fill:#61ccec;fill-opacity:1;fill-rule:nonzero;stroke:none"
         transform="matrix(0.13333333,0,0,-0.13333333,0,666.4)" />
    </g>
  </g>
</svg>
